<?xml version="1.0" standalone="no"?>
<!DOCTYPE svg PUBLIC "-//W3C//DTD SVG 20010904//EN"
 "http://www.w3.org/TR/2001/REC-SVG-20010904/DTD/svg10.dtd">
<svg version="1.0" xmlns="http://www.w3.org/2000/svg"
 width="697.000000pt" height="676.000000pt" viewBox="0 0 697.000000 676.000000"
 preserveAspectRatio="xMidYMid meet">

<g transform="translate(0.000000,676.000000) scale(0.100000,-0.100000)"
fill="#000000" stroke="none">
<path d="M3429 6713 c-65 -71 -169 -158 -225 -187 -27 -15 -69 -38 -94 -52
-25 -14 -65 -30 -90 -35 -25 -6 -58 -17 -75 -24 -16 -7 -55 -19 -85 -26 -30
-7 -64 -19 -75 -26 -11 -7 -30 -13 -43 -13 -13 0 -36 -6 -50 -14 -34 -18 -98
-39 -187 -61 -38 -10 -97 -30 -131 -46 -33 -15 -74 -31 -90 -35 -16 -4 -38
-13 -49 -20 -11 -8 -29 -14 -42 -14 -12 0 -48 -15 -80 -34 -32 -19 -90 -47
-128 -62 -67 -27 -82 -35 -151 -81 -17 -12 -47 -29 -65 -38 -56 -26 -93 -48
-107 -62 -8 -7 -28 -21 -45 -30 -28 -14 -102 -67 -117 -83 -3 -3 -36 -30 -75
-60 -116 -92 -346 -327 -433 -445 -45 -60 -85 -114 -89 -120 -5 -5 -15 -21
-24 -35 -9 -14 -26 -36 -38 -49 -11 -13 -21 -28 -21 -32 0 -4 -6 -14 -13 -21
-6 -8 -19 -26 -27 -41 -8 -14 -36 -57 -61 -94 -26 -38 -57 -88 -70 -113 -40
-74 -132 -202 -171 -238 -20 -19 -74 -56 -119 -82 -70 -42 -94 -51 -171 -61
-134 -19 -134 -38 2 -174 17 -17 30 -34 30 -39 0 -5 6 -17 13 -25 43 -51 82
-234 92 -436 3 -55 9 -158 15 -230 5 -71 10 -292 10 -490 0 -285 3 -371 15
-415 8 -30 15 -77 15 -105 0 -27 7 -61 15 -75 8 -14 14 -42 15 -63 0 -21 7
-54 15 -74 8 -19 15 -43 15 -53 0 -20 36 -144 54 -185 26 -58 39 -91 61 -155
13 -36 40 -94 59 -130 20 -36 38 -72 42 -80 12 -31 49 -97 88 -160 23 -36 46
-73 51 -82 29 -48 86 -126 99 -137 9 -8 16 -19 16 -27 0 -7 6 -19 13 -26 7 -7
58 -71 112 -143 54 -71 118 -148 142 -170 24 -23 43 -44 43 -49 0 -4 15 -26
32 -49 57 -73 98 -147 98 -177 0 -12 8 -35 17 -53 14 -26 17 -60 18 -184 0
-102 4 -153 11 -153 6 0 35 13 65 28 79 41 152 53 304 53 143 0 277 -16 310
-38 11 -7 31 -13 45 -13 14 0 34 -7 44 -15 11 -8 29 -15 40 -15 12 0 34 -7 50
-15 15 -8 37 -15 47 -15 10 0 33 -6 51 -14 18 -8 58 -24 88 -36 30 -11 64 -25
75 -30 11 -5 45 -14 75 -21 88 -19 159 -36 245 -60 44 -12 107 -26 140 -32 84
-14 1335 -21 1349 -7 5 5 28 10 51 10 23 0 50 7 61 15 10 8 25 15 31 15 7 0
42 14 76 30 35 17 76 30 90 30 14 0 32 6 39 13 15 14 84 47 143 69 22 9 65 25
95 38 30 12 84 31 120 42 36 10 90 26 120 36 40 12 95 16 205 17 160 0 149 3
278 -63 11 -5 9 32 -3 44 -5 5 -11 59 -12 119 -2 110 10 169 49 245 7 14 13
31 13 39 0 7 18 40 39 71 22 32 52 82 67 111 15 30 44 77 63 104 20 28 54 77
75 110 57 87 87 132 137 203 24 34 49 70 54 80 26 44 89 138 147 219 72 100
195 298 219 353 6 14 26 57 44 95 19 39 41 95 51 125 9 30 22 71 29 90 7 19
20 62 30 95 9 33 23 75 31 93 8 18 14 46 14 63 0 16 6 58 14 92 32 136 41 272
41 597 0 179 -4 408 -9 510 -7 158 -6 197 8 265 29 137 54 200 114 287 17 26
32 54 32 61 0 15 -41 37 -69 37 -11 0 -52 16 -92 36 -76 37 -156 99 -243 189
-64 64 -244 272 -265 305 -9 14 -21 30 -26 35 -20 18 -65 83 -65 94 0 5 -21
33 -46 63 -25 29 -50 62 -55 73 -19 39 -36 66 -62 95 -15 16 -35 46 -46 65
-25 47 -188 234 -271 312 -14 13 -50 47 -80 76 -111 104 -148 137 -157 137 -4
0 -31 20 -60 45 -28 25 -54 45 -56 45 -3 0 -45 26 -94 59 -48 32 -113 72 -143
89 -84 46 -294 152 -303 152 -5 0 -38 14 -75 31 -103 48 -188 79 -214 79 -8 0
-21 6 -27 14 -10 12 -41 19 -131 31 -3 0 -18 5 -35 11 -38 14 -120 34 -143 34
-9 1 -35 9 -57 20 -22 11 -50 19 -63 20 -26 0 -110 25 -159 46 -17 8 -36 14
-42 14 -6 0 -26 14 -44 30 -19 17 -41 30 -49 30 -12 0 -30 19 -90 95 -5 6 -17
22 -29 38 -17 23 -28 27 -68 27 -45 0 -52 -4 -92 -47z m123 -193 c73 -68 271
-181 338 -194 19 -4 51 -13 70 -20 19 -8 69 -21 110 -30 41 -10 98 -23 125
-30 28 -8 70 -19 95 -25 25 -7 68 -19 95 -27 28 -9 67 -19 88 -24 21 -4 44
-13 50 -19 6 -6 19 -11 30 -11 50 0 393 -164 497 -237 25 -18 79 -55 120 -83
86 -59 119 -86 325 -272 27 -23 67 -66 226 -238 23 -25 56 -68 75 -97 19 -29
40 -56 47 -60 6 -4 25 -28 42 -53 16 -25 49 -69 72 -98 24 -30 43 -60 43 -67
0 -8 6 -18 13 -22 12 -8 51 -59 110 -145 17 -26 54 -80 82 -120 27 -40 60 -84
75 -98 14 -14 43 -46 65 -70 52 -60 156 -145 244 -199 39 -25 71 -45 71 -46 0
-9 -39 -107 -47 -117 -12 -15 -30 -80 -45 -158 -11 -62 -3 -453 12 -565 18
-136 11 -425 -15 -605 -25 -175 -62 -331 -82 -352 -7 -6 -13 -22 -13 -34 0
-29 -33 -131 -64 -197 -14 -30 -26 -59 -26 -65 0 -11 -89 -200 -114 -242 -9
-14 -22 -41 -31 -60 -16 -37 -84 -151 -95 -160 -3 -3 -19 -27 -35 -55 -16 -27
-57 -89 -92 -137 -35 -48 -63 -90 -63 -93 0 -3 -20 -31 -45 -63 -128 -162
-124 -158 -231 -317 -37 -55 -75 -112 -85 -126 -10 -14 -29 -62 -44 -105 -14
-43 -32 -90 -39 -104 -10 -19 -46 -163 -46 -185 0 -2 -62 -3 -137 -3 -95 0
-157 -4 -198 -15 -33 -9 -76 -19 -96 -22 -21 -3 -42 -12 -49 -20 -7 -8 -24
-15 -37 -15 -14 0 -76 -22 -138 -50 -62 -27 -117 -50 -122 -50 -6 0 -30 -11
-55 -24 -25 -13 -65 -28 -89 -34 -108 -27 -147 -39 -186 -60 -49 -26 -127 -45
-303 -74 -103 -17 -170 -21 -385 -21 -281 -1 -386 9 -636 56 -42 8 -85 19 -95
24 -11 5 -50 18 -89 27 -38 10 -79 22 -90 26 -11 5 -40 14 -65 20 -71 18 -321
100 -365 120 -40 18 -57 23 -168 55 -117 33 -164 44 -271 60 -91 14 -124 15
-196 6 -47 -6 -92 -11 -98 -11 -16 0 -63 106 -56 124 3 8 -1 25 -9 38 -8 13
-18 39 -21 59 -4 21 -13 42 -21 49 -8 7 -15 18 -15 26 0 7 -6 19 -12 26 -7 7
-39 52 -71 98 -31 47 -72 101 -90 120 -19 19 -53 61 -76 93 -24 32 -69 89
-100 125 -31 37 -79 99 -106 137 -26 39 -54 74 -61 78 -8 4 -14 12 -14 16 0 5
-18 38 -40 72 -22 35 -47 78 -55 94 -9 17 -20 37 -25 45 -48 77 -124 262 -178
435 -39 124 -51 170 -73 295 -5 30 -14 75 -20 100 -30 130 -42 312 -49 785 -5
270 -13 524 -18 565 -14 103 -48 239 -65 259 -21 23 -47 77 -47 96 0 9 14 24
31 33 70 38 181 132 248 210 39 45 71 88 71 94 0 6 10 22 22 35 12 13 31 39
42 58 174 291 223 363 368 549 62 79 142 168 163 182 13 9 27 23 30 32 2 10
26 33 51 52 25 19 56 44 68 56 38 37 210 161 234 168 12 4 22 11 22 16 0 5 9
12 20 15 11 4 33 17 48 30 79 66 458 249 602 289 25 7 65 22 90 33 54 24 203
71 282 88 31 7 80 24 110 38 29 14 71 28 92 33 22 4 51 13 65 20 14 8 31 14
37 14 10 0 79 34 211 106 73 39 131 82 187 140 17 17 36 32 43 33 6 0 27 -13
45 -29z"/>
<path d="M3512 5832 c-28 -26 -52 -55 -52 -64 0 -20 29 -28 52 -14 9 6 21 7
25 2 4 -4 8 -56 8 -114 0 -95 2 -107 18 -110 41 -8 47 12 47 172 0 198 -8 208
-98 128z"/>
<path d="M3144 5849 c-8 -14 3 -168 20 -264 10 -65 13 -70 38 -73 38 -4 41 18
23 139 -8 56 -15 121 -15 144 0 22 -5 46 -12 53 -15 15 -45 16 -54 1z"/>
<path d="M3906 5773 c-9 -43 -23 -108 -31 -144 -19 -87 -19 -118 1 -126 26
-10 48 10 56 52 13 59 24 67 82 60 69 -9 120 13 135 56 16 46 14 80 -8 115
-19 31 -39 38 -188 61 l-31 5 -16 -79z m161 -14 c14 -12 17 -46 7 -73 -4 -11
-19 -16 -44 -16 -63 0 -86 49 -47 98 12 15 61 9 84 -9z"/>
<path d="M2822 5798 l-64 -20 5 -42 c3 -22 17 -95 31 -161 14 -66 26 -121 26
-121 1 -10 36 -11 52 -3 16 9 19 17 14 42 -3 18 -7 48 -9 67 -2 31 1 35 25 38
20 2 40 -9 82 -47 42 -38 64 -51 86 -51 53 0 50 28 -8 80 -29 26 -52 52 -52
59 0 7 9 24 20 38 27 35 25 75 -6 112 -23 28 -31 31 -82 30 -32 -1 -86 -10
-120 -21z m142 -54 c32 -31 9 -64 -56 -82 -31 -8 -39 -7 -53 8 -10 11 -15 30
-13 47 2 22 9 29 33 34 52 11 73 10 89 -7z"/>
<path d="M4283 5758 c-12 -16 -53 -139 -53 -160 0 -8 -7 -29 -16 -46 -25 -50
-4 -92 68 -138 50 -32 117 -33 152 -1 13 12 38 60 56 107 17 47 38 100 46 119
13 30 13 35 -2 52 -32 36 -60 17 -80 -55 -7 -23 -18 -62 -26 -88 -15 -55 -50
-98 -78 -98 -28 0 -70 44 -70 72 0 13 9 48 21 78 27 72 42 137 35 155 -7 18
-40 20 -53 3z"/>
<path d="M2574 5731 c-17 -4 -37 -12 -45 -17 -8 -5 -34 -16 -59 -24 -41 -14
-45 -18 -43 -45 1 -38 56 -223 77 -264 9 -17 24 -31 33 -31 21 0 119 28 158
45 17 7 38 16 48 19 10 3 17 15 17 31 0 32 -29 33 -91 5 -75 -33 -115 -24
-121 29 -3 27 6 33 84 61 56 21 80 46 56 62 -17 10 -77 -1 -105 -19 -12 -8
-32 -13 -45 -11 -19 3 -23 9 -23 42 l0 38 68 18 c71 17 94 35 75 57 -11 14
-36 15 -84 4z"/>
<path d="M4636 5618 c-8 -13 -25 -50 -37 -83 -12 -33 -28 -69 -35 -80 -8 -11
-14 -27 -14 -36 0 -9 -7 -22 -15 -29 -20 -17 -19 -57 2 -69 27 -14 48 3 72 59
14 33 28 50 39 50 24 0 48 -44 57 -104 10 -72 20 -93 51 -100 41 -11 47 4 28
72 -20 71 -16 87 25 95 58 12 89 101 52 149 -23 28 -158 98 -191 98 -11 0 -26
-10 -34 -22z m132 -80 c29 -8 33 -13 30 -40 -4 -46 -26 -54 -81 -33 -37 14
-47 23 -47 41 0 29 28 57 49 48 9 -3 31 -10 49 -16z"/>
<path d="M2180 5573 c-40 -16 -100 -77 -110 -113 -18 -68 17 -173 73 -212 48
-34 147 -32 203 4 46 29 74 67 74 99 0 32 -43 119 -59 119 -18 0 -121 -59
-121 -70 0 -18 28 -29 62 -24 47 8 56 -15 23 -55 -47 -55 -123 -50 -162 12
-38 60 -41 107 -10 143 23 26 32 29 86 30 64 0 88 12 78 38 -11 29 -92 46
-137 29z"/>
<path d="M4995 5481 c-2 -5 -21 -51 -40 -102 -33 -87 -41 -107 -76 -181 -11
-24 -10 -31 6 -48 31 -34 59 -25 137 45 40 36 77 65 82 65 13 0 1 -57 -28
-135 -27 -74 -26 -99 4 -115 23 -12 60 12 181 119 92 82 103 95 95 117 -12 31
-57 15 -112 -41 -30 -30 -61 -55 -69 -55 -17 0 -20 35 -5 45 6 3 10 16 10 28
0 12 7 31 15 41 33 44 7 116 -41 116 -10 0 -47 -27 -81 -60 -35 -33 -67 -60
-73 -60 -20 0 -6 49 36 132 22 41 18 73 -11 86 -13 6 -27 7 -30 3z"/>
<path d="M1884 5392 c-17 -9 -44 -27 -60 -39 -16 -13 -45 -33 -64 -46 -49 -32
-49 -55 3 -119 25 -30 50 -66 57 -79 27 -50 84 -109 107 -109 12 0 25 5 28 10
4 6 38 31 76 56 75 50 95 74 77 92 -19 19 -29 15 -105 -38 l-72 -49 -21 28
c-11 16 -20 34 -20 40 0 11 36 51 46 51 16 0 74 55 74 71 0 29 -36 33 -70 8
-16 -13 -30 -26 -30 -30 0 -6 -53 -29 -66 -29 -1 0 -9 7 -17 15 -24 23 -10 47
54 94 44 32 59 49 57 64 -4 27 -17 29 -54 9z"/>
<path d="M1570 5160 c-10 -18 -3 -29 49 -84 34 -34 61 -66 61 -69 0 -14 -72
-6 -127 13 -69 24 -106 25 -127 4 -9 -8 -16 -18 -16 -21 0 -21 211 -243 231
-243 10 0 23 9 29 20 10 18 3 29 -50 83 -33 34 -60 65 -60 70 0 12 45 8 106
-12 102 -32 118 -34 144 -13 15 13 21 24 16 38 -10 29 -210 234 -229 234 -9 0
-21 -9 -27 -20z"/>
<path d="M5410 5115 c-14 -8 -32 -14 -41 -15 -25 0 -98 -89 -105 -127 -17 -90
33 -171 120 -199 50 -16 56 -16 99 1 51 19 108 83 127 140 22 68 -23 156 -101
195 -45 23 -65 24 -99 5z m89 -72 c42 -24 56 -62 41 -105 -15 -41 -38 -71 -67
-87 -24 -12 -92 -15 -110 -3 -20 13 -34 65 -28 103 7 41 34 70 85 92 45 20 43
20 79 0z"/>
<path d="M2246 4888 c-15 -29 -70 -105 -123 -168 -191 -231 -228 -305 -239
-490 -6 -105 -12 -133 -25 -125 -18 12 -63 89 -85 144 -11 30 -27 59 -36 64
-23 15 -66 0 -74 -26 -3 -12 -11 -28 -17 -35 -6 -7 -25 -59 -43 -115 -59 -182
-63 -429 -9 -580 33 -90 -5 -85 -163 23 -36 25 -73 57 -81 70 -9 14 -25 41
-36 59 -44 73 -51 78 -82 61 -26 -14 -29 -22 -36 -95 -16 -161 2 -353 49 -515
19 -64 83 -198 116 -241 41 -53 121 -143 151 -169 16 -14 44 -38 61 -53 17
-15 61 -48 97 -72 36 -25 76 -56 89 -70 l23 -25 -26 0 c-15 0 -35 4 -45 9 -52
26 -114 51 -127 51 -8 0 -15 4 -15 8 0 5 -18 17 -39 27 -68 30 -193 172 -216
243 -10 33 -37 24 -51 -18 -34 -100 -39 -132 -39 -245 0 -111 2 -124 28 -177
16 -32 46 -81 68 -110 21 -29 35 -56 31 -60 -5 -5 -26 -11 -48 -15 -21 -3 -46
-11 -54 -18 -8 -7 -25 -16 -36 -19 -22 -7 -144 -123 -144 -137 0 -14 33 -27
132 -53 91 -25 177 -63 208 -92 8 -8 32 -27 52 -43 45 -34 117 -121 181 -217
73 -112 143 -169 272 -224 33 -14 141 -22 195 -15 34 5 64 18 95 42 l47 35 21
-20 c63 -57 366 -242 397 -242 7 0 26 -6 43 -14 48 -21 203 -72 277 -91 74
-18 150 -30 300 -46 112 -11 469 -4 530 11 19 4 70 11 112 15 43 4 80 11 84
16 3 5 16 9 28 9 36 0 272 77 336 109 147 75 247 134 316 186 46 36 89 65 93
65 5 0 33 -15 61 -34 105 -69 259 -56 396 33 61 40 114 100 233 266 30 41 66
86 80 99 49 45 163 116 204 127 23 6 47 14 52 19 6 4 37 10 69 14 105 12 112
39 27 117 -73 68 -118 95 -170 104 -51 9 -52 22 -3 83 50 64 68 103 87 192 13
60 14 89 6 145 -16 108 -55 225 -75 225 -6 0 -28 -29 -49 -64 -62 -104 -140
-183 -221 -223 -76 -36 -175 -73 -201 -73 -23 0 -18 16 13 35 85 56 226 169
288 235 66 68 124 142 124 156 0 4 14 26 30 51 17 24 30 49 30 56 0 7 7 25 15
41 46 87 84 395 70 560 -6 78 -10 88 -32 103 -31 20 -51 10 -75 -38 -32 -62
-102 -137 -163 -172 -165 -97 -171 -96 -132 15 14 40 29 96 33 123 17 120 -5
371 -40 450 -8 17 -26 60 -42 98 -20 49 -33 69 -50 73 -26 7 -64 -11 -64 -30
0 -34 -94 -191 -109 -181 -5 2 -11 53 -14 112 -3 59 -13 133 -22 163 -19 65
-80 171 -133 233 -63 75 -74 89 -140 175 -35 46 -70 98 -78 117 -12 30 -19 35
-49 35 -33 0 -35 -2 -35 -36 0 -19 5 -44 10 -55 18 -33 15 -264 -4 -354 -21
-97 -44 -185 -55 -205 -4 -8 -18 -60 -30 -115 -12 -55 -27 -111 -32 -124 -6
-14 -14 -43 -19 -65 -4 -23 -14 -57 -21 -76 -6 -19 -16 -47 -21 -62 -21 -57
-64 -45 -74 20 -9 65 -59 190 -97 245 -12 19 -3 30 56 72 26 18 16 41 -39 101
-24 27 -55 64 -67 81 -26 39 -46 41 -77 8 -13 -14 -29 -25 -37 -25 -7 0 -52
29 -100 64 -47 36 -98 70 -112 76 -74 34 -76 36 -73 63 8 88 10 81 -38 97 -25
8 -49 18 -55 22 -18 11 -126 30 -141 24 -9 -3 -14 -20 -14 -45 0 -22 -3 -42
-7 -44 -5 -3 -87 -6 -183 -8 l-174 -4 -9 43 c-4 23 -14 42 -20 42 -7 0 -39
-12 -72 -25 -33 -14 -68 -25 -77 -25 -18 0 -98 -38 -98 -46 0 -3 9 -22 20 -44
25 -49 25 -54 -2 -69 -46 -24 -65 -37 -135 -94 -40 -32 -77 -66 -83 -77 -15
-28 -49 -25 -83 8 l-29 27 -24 -30 c-74 -95 -124 -168 -124 -180 0 -8 18 -27
40 -41 22 -15 40 -30 40 -34 0 -4 -7 -24 -16 -45 -19 -46 -64 -218 -64 -245 0
-29 -30 -38 -46 -15 -8 10 -14 40 -14 67 0 26 -7 69 -15 95 -30 95 -43 139
-60 203 -9 36 -26 94 -36 129 -10 35 -19 74 -19 86 0 11 -4 25 -9 31 -5 5 -19
56 -31 114 -29 138 -32 301 -6 382 23 71 17 88 -27 88 -32 0 -37 -5 -61 -52z
m2648 -383 c7 -19 -3 -47 -15 -39 -12 7 -12 54 0 54 5 0 11 -7 15 -15z m-1103
-73 c114 -42 188 -83 267 -148 57 -47 152 -153 152 -169 0 -8 44 -69 52 -73 8
-4 49 -112 80 -212 30 -97 32 -278 4 -385 -37 -142 -183 -389 -244 -413 -9 -3
-25 -16 -35 -29 -36 -45 -174 -127 -272 -161 -107 -37 -311 -48 -436 -23 -127
26 -299 111 -382 190 -87 83 -172 198 -208 281 -33 76 -39 92 -39 109 0 10 -7
35 -15 54 -11 27 -15 75 -15 183 0 141 1 150 35 252 44 132 80 197 170 310 5
7 45 42 87 77 91 77 249 160 323 170 28 3 57 11 65 16 9 6 77 8 170 6 142 -4
162 -7 241 -35z m-1781 -211 c0 -11 -4 -23 -10 -26 -6 -4 -10 5 -10 19 0 14 5
26 10 26 6 0 10 -9 10 -19z m0 -95 c0 -3 -4 -8 -10 -11 -5 -3 -10 -1 -10 4 0
6 5 11 10 11 6 0 10 -2 10 -4z m3340 -44 c-1 -25 -2 -26 -15 -9 -7 11 -11 25
-8 33 8 22 23 6 23 -24z m-3576 -55 c15 -24 -3 -35 -20 -13 -8 11 -14 24 -14
29 0 13 22 3 34 -16z m546 -18 c0 -10 -4 -19 -10 -19 -5 0 -10 12 -10 26 0 14
4 23 10 19 6 -3 10 -15 10 -26z m-315 11 c3 -5 1 -10 -4 -10 -6 0 -11 5 -11
10 0 6 2 10 4 10 3 0 8 -4 11 -10z m-195 -35 c0 -8 -4 -15 -10 -15 -5 0 -10 7
-10 15 0 8 5 15 10 15 6 0 10 -7 10 -15z m3485 -60 c0 -10 -6 -20 -12 -22 -8
-3 -13 5 -13 22 0 17 5 25 13 23 6 -3 12 -13 12 -23z m-3470 -5 c3 -5 -1 -10
-9 -10 -9 0 -16 5 -16 10 0 6 4 10 9 10 6 0 13 -4 16 -10z m2842 -62 c-3 -7
-5 -2 -5 12 0 14 2 19 5 13 2 -7 2 -19 0 -25z m-2781 -54 c12 -27 12 -39 4
-48 -8 -8 -15 -6 -26 8 -19 27 -18 76 3 76 2 0 11 -16 19 -36z m504 -41 c-1
-47 -1 -47 -15 -22 -8 14 -11 36 -8 47 10 39 23 23 23 -25z m2280 -8 c0 -8 -4
-15 -10 -15 -5 0 -10 7 -10 15 0 8 5 15 10 15 6 0 10 -7 10 -15z m600 -52 c0
-7 -9 -13 -20 -13 -23 0 -24 4 -9 32 9 17 13 18 20 7 5 -8 9 -20 9 -26z
m-3568 -55 c-8 -8 -9 -4 -5 13 4 13 8 18 11 10 2 -7 -1 -18 -6 -23z m548 -18
c0 -5 -4 -10 -10 -10 -5 0 -10 5 -10 10 0 6 5 10 10 10 6 0 10 -4 10 -10z
m-514 -67 c-7 -7 -26 7 -26 19 0 6 6 6 15 -2 9 -7 13 -15 11 -17z m3527 10
c-7 -2 -21 -2 -30 0 -10 3 -4 5 12 5 17 0 24 -2 18 -5z m-3209 -32 c49 -21
176 -142 176 -167 0 -9 9 -27 20 -41 11 -14 20 -38 20 -52 0 -15 5 -32 11 -38
20 -20 49 -115 49 -158 0 -22 6 -49 14 -60 9 -13 15 -67 19 -160 3 -77 11
-162 17 -190 13 -55 63 -159 91 -191 11 -11 19 -26 19 -33 0 -28 190 -206 250
-235 17 -8 39 -21 97 -59 24 -15 49 -27 56 -27 19 0 57 -55 57 -83 0 -14 7
-42 16 -63 15 -37 15 -38 -8 -56 -12 -9 -30 -17 -38 -17 -11 1 -10 3 3 6 24 6
21 30 -5 36 -13 4 -26 0 -33 -10 -10 -13 -13 -14 -20 -3 -5 9 -4 15 3 18 22 7
13 20 -18 27 -16 4 -30 11 -30 16 0 5 -12 9 -27 9 -16 1 -46 14 -68 30 -22 16
-51 34 -65 40 -13 6 -27 14 -30 18 -9 12 -78 62 -86 62 -4 0 -25 19 -47 43
-21 23 -56 60 -77 83 -52 55 -102 122 -122 164 -34 71 -48 108 -48 127 0 10
-4 23 -10 29 -22 22 -50 189 -50 300 0 81 -4 115 -15 130 -8 11 -14 41 -15 72
0 33 -7 66 -17 83 -15 26 -21 28 -53 23 -19 -3 -50 -11 -67 -17 -25 -8 -36 -8
-45 1 -7 7 -27 12 -45 12 -18 0 -33 4 -33 10 0 5 -12 16 -27 23 -29 16 -52 80
-53 150 0 47 37 99 99 139 53 33 74 35 135 9z m3022 9 c16 -5 48 -14 72 -20
29 -8 42 -16 42 -28 0 -10 4 -22 10 -28 17 -17 30 -109 20 -140 -5 -16 -12
-40 -14 -54 -6 -29 -47 -56 -121 -82 -41 -14 -53 -14 -65 -4 -8 8 -34 16 -58
19 -48 6 -44 10 -75 -88 -9 -27 -18 -79 -21 -115 -3 -36 -11 -128 -17 -205 -6
-77 -18 -155 -25 -174 -8 -18 -14 -41 -14 -51 0 -10 -6 -23 -14 -29 -8 -7 -18
-26 -22 -43 -7 -35 -58 -119 -98 -161 -14 -15 -26 -31 -26 -36 0 -15 -243
-231 -260 -231 -5 0 -15 -6 -22 -13 -23 -22 -148 -87 -168 -87 -10 0 -23 -7
-28 -16 -5 -9 -25 -18 -46 -20 -41 -4 -43 2 -26 84 12 54 39 88 93 117 20 11
37 23 37 27 0 4 23 17 50 29 28 12 50 25 50 30 0 4 15 15 33 24 18 8 53 35 77
60 36 37 41 47 31 59 -11 13 -8 15 15 13 22 -2 32 5 48 31 12 18 38 54 59 80
21 26 40 58 43 72 3 14 9 34 14 45 12 29 20 64 26 115 3 25 9 69 14 99 6 30
10 89 10 131 0 42 7 99 15 126 8 27 15 59 15 70 0 12 7 27 15 34 8 7 15 27 15
45 0 18 7 38 15 45 8 7 15 19 15 26 0 22 40 92 56 98 8 3 14 14 14 24 0 23 94
97 148 117 20 7 37 14 38 14 1 1 14 -3 30 -9z m-3256 -4 c0 -3 -4 -8 -10 -11
-5 -3 -10 -1 -10 4 0 6 5 11 10 11 6 0 10 -2 10 -4z m-509 -49 c-8 -8 -11 -3
-11 19 1 25 2 27 11 11 8 -14 8 -22 0 -30z m9 -42 c0 -8 -4 -15 -10 -15 -5 0
-10 7 -10 15 0 8 5 15 10 15 6 0 10 -7 10 -15z m1263 -27 c8 -18 17 -49 20
-68 7 -31 47 -126 83 -193 18 -32 11 -47 -21 -47 -15 0 -46 22 -90 65 -59 56
-67 69 -62 93 3 15 11 62 18 105 14 85 30 99 52 45z m1931 1 c3 -17 6 -48 6
-68 0 -20 4 -51 9 -69 9 -29 6 -37 -21 -67 -55 -63 -112 -35 -87 43 6 20 15
42 19 47 3 6 12 30 19 55 28 98 44 115 55 59z m1153 15 c-3 -3 -12 -4 -19 -1
-8 3 -5 6 6 6 11 1 17 -2 13 -5z m-3344 -40 c-3 -8 -9 -14 -13 -14 -11 0 -21
30 -14 41 9 15 34 -10 27 -27z m3314 -81 c-3 -10 -5 -4 -5 12 0 17 2 24 5 18
2 -7 2 -21 0 -30z m-197 -2 c0 -12 -29 -35 -36 -28 -11 10 5 37 21 37 8 0 15
-4 15 -9z m-770 -104 c0 -51 -15 -38 -24 22 -6 39 -5 43 9 31 9 -7 15 -29 15
-53z m-2290 -12 c0 -8 -4 -15 -10 -15 -5 0 -10 7 -10 15 0 8 5 15 10 15 6 0
10 -7 10 -15z m3230 -50 c0 -8 -4 -15 -10 -15 -5 0 -10 7 -10 15 0 8 5 15 10
15 6 0 10 -7 10 -15z m-3110 -86 c0 -6 -4 -7 -10 -4 -5 3 -10 11 -10 16 0 6 5
7 10 4 6 -3 10 -11 10 -16z m-440 -14 c0 -14 -4 -25 -10 -25 -11 0 -14 33 -3
43 11 11 13 8 13 -18z m2585 -20 c0 -10 -6 -20 -12 -22 -8 -3 -13 5 -13 22 0
17 5 25 13 23 6 -3 12 -13 12 -23z m-2075 -25 c0 -5 -4 -10 -10 -10 -5 0 -10
5 -10 10 0 6 5 10 10 10 6 0 10 -4 10 -10z m1700 -38 c0 -11 -16 -35 -35 -55
-19 -20 -35 -40 -35 -45 0 -5 -7 -15 -15 -22 -18 -15 -135 -187 -135 -198 0
-4 -16 -25 -37 -45 l-36 -38 -71 7 c-66 6 -97 17 -84 29 3 3 47 20 99 38 104
36 99 29 83 120 -6 37 -5 38 35 54 22 9 41 19 41 24 0 4 28 28 63 53 34 26 71
57 82 71 24 29 45 32 45 7z m-1327 -100 c39 -32 96 -69 124 -82 74 -33 85 -47
71 -92 -15 -51 -7 -64 52 -78 29 -7 49 -17 47 -24 -4 -11 -151 -30 -173 -22
-6 3 -45 55 -87 118 -41 62 -89 130 -106 152 -30 37 -38 65 -24 79 12 13 23 7
96 -51z m2413 -29 c-10 -10 -19 5 -10 18 6 11 8 11 12 0 2 -7 1 -15 -2 -18z
m-53 -31 c-20 -21 -28 -20 -20 3 4 8 13 15 22 15 13 0 12 -3 -2 -18z m-1541
-144 c4 -7 8 -27 8 -45 0 -17 5 -35 12 -39 11 -7 -15 -16 -167 -55 -22 -6 -44
-14 -49 -20 -16 -15 -47 -11 -111 15 l-60 25 -3 51 c-4 69 9 83 68 77 25 -3
86 -1 135 3 106 9 155 6 167 -12z m1125 -20 c-3 -8 -6 -5 -6 6 -1 11 2 17 5
13 3 -3 4 -12 1 -19z m-2407 -23 c0 -8 -4 -15 -10 -15 -5 0 -10 7 -10 15 0 8
5 15 10 15 6 0 10 -7 10 -15z m2380 -56 c0 -5 -4 -9 -10 -9 -5 0 -10 7 -10 16
0 8 5 12 10 9 6 -3 10 -10 10 -16z m-1547 0 c-8 -8 -16 -8 -30 0 -16 9 -14 10
12 11 21 0 26 -3 18 -11z m1787 7 c0 -11 -19 -15 -25 -6 -3 5 1 10 9 10 9 0
16 -2 16 -4z m-2284 -102 c-5 -13 -10 -14 -18 -6 -6 6 -8 18 -4 28 5 13 10 14
18 6 6 -6 8 -18 4 -28z m493 10 c11 -4 12 -7 3 -16 -15 -15 -16 -48 -2 -48 6
0 16 11 22 25 20 44 69 28 65 -20 -2 -36 26 -43 31 -7 4 28 37 30 52 3 6 -12
10 -121 10 -286 0 -228 -2 -266 -15 -271 -19 -8 -46 14 -43 34 3 17 -32 42
-38 27 -13 -33 -23 -39 -47 -28 -20 9 -23 17 -19 38 4 22 1 26 -14 23 -10 -2
-21 -14 -24 -28 -8 -34 -52 -35 -60 -2 -7 30 -24 33 -28 5 -2 -17 -14 -26 -44
-35 -36 -11 -42 -10 -54 7 -17 23 -18 59 -3 86 8 16 7 23 -6 33 -23 16 -11 56
16 56 30 0 23 28 -8 32 -40 4 -42 34 -3 43 40 9 33 30 -11 30 -26 0 -35 5 -37
20 -2 11 -10 34 -16 50 -73 175 -77 189 -59 202 9 7 26 13 38 13 12 0 25 4 31
9 16 17 215 20 263 5z m728 -11 c29 -8 55 -19 58 -24 3 -4 -5 -30 -19 -57 -13
-26 -28 -65 -32 -87 -4 -21 -13 -50 -20 -64 -8 -14 -14 -32 -14 -40 0 -9 -10
-12 -35 -9 -27 3 -35 0 -35 -12 0 -9 12 -22 26 -28 17 -8 24 -18 21 -30 -3 -9
-8 -34 -12 -54 -3 -21 -13 -41 -22 -46 -12 -7 -13 -13 -4 -30 16 -29 14 -91
-3 -98 -27 -10 -80 11 -86 35 -6 29 -25 28 -25 -2 0 -19 -5 -22 -35 -22 -31 0
-35 3 -35 25 0 16 -6 25 -15 25 -10 0 -15 -10 -15 -30 0 -25 -4 -31 -27 -33
-20 -2 -28 2 -33 18 -9 29 -41 22 -38 -8 3 -25 -40 -53 -57 -36 -5 5 -10 126
-11 279 -1 248 0 270 17 282 15 11 21 10 44 -12 26 -25 40 -24 40 2 0 7 -10
17 -22 22 -18 7 -15 10 28 26 95 34 259 38 361 8z m233 8 c0 -6 -4 -13 -10
-16 -5 -3 -10 1 -10 9 0 9 5 16 10 16 6 0 10 -4 10 -9z m560 -67 c0 -2 -11 -4
-25 -4 -18 0 -25 5 -25 20 0 20 1 20 25 4 14 -9 25 -18 25 -20z m-2580 10 c0
-8 -5 -12 -10 -9 -6 4 -8 11 -5 16 9 14 15 11 15 -7z m391 -15 c16 -16 18 -23
9 -34 -14 -16 -40 -9 -40 11 0 8 -7 17 -15 20 -22 9 -18 24 5 24 11 0 29 -9
41 -21z m1699 10 c0 -5 -16 -10 -35 -10 -19 -1 -40 -2 -47 -3 -6 -1 -13 4 -15
11 -3 7 13 11 46 11 28 1 51 -3 51 -9z m430 -59 c12 -8 9 -10 -13 -10 -16 0
-26 4 -22 10 8 12 16 12 35 0z m-1994 -37 c-11 -11 -17 4 -9 23 7 18 8 18 11
1 2 -10 1 -21 -2 -24z m1630 22 c-21 -16 -56 -20 -56 -7 0 16 13 22 44 22 29
-1 30 -1 12 -15z m-2246 -51 c29 -29 32 -36 20 -44 -8 -5 -20 -10 -26 -10 -11
0 -64 69 -64 83 0 19 39 3 70 -29z m2776 -12 c-19 -37 -42 -56 -61 -48 -22 8
-18 31 8 50 55 40 62 44 65 36 2 -5 -4 -22 -12 -38z m-620 3 c20 -31 11 -44
-17 -26 -18 10 -23 10 -34 -6 -11 -15 -16 -16 -27 -5 -10 10 -9 14 9 18 12 3
23 14 26 25 7 26 23 24 43 -6z m-1985 -96 c11 -6 28 -18 38 -27 39 -37 169
-142 176 -142 4 0 28 -17 54 -38 53 -45 155 -101 346 -193 22 -11 58 -23 80
-28 22 -5 65 -17 95 -26 30 -9 78 -20 105 -25 28 -4 63 -13 78 -19 45 -18 396
-14 440 4 20 8 49 15 65 15 15 0 54 9 85 20 32 11 85 24 118 29 34 4 64 13 68
20 4 6 57 36 117 65 60 29 144 78 188 107 43 30 90 60 105 68 14 8 28 17 31
21 3 4 34 31 70 60 36 30 75 64 87 77 73 76 266 -60 289 -205 4 -23 11 -45 15
-48 13 -8 11 -72 -3 -97 -38 -72 -271 -307 -305 -307 -7 0 -17 -8 -22 -19 -6
-10 -25 -26 -43 -35 -57 -30 -77 -42 -95 -58 -15 -13 -109 -60 -248 -123 -47
-21 -131 -45 -160 -45 -14 0 -36 -6 -48 -12 -68 -38 -304 -69 -532 -69 -189
-1 -415 20 -455 41 -10 5 -34 10 -54 10 -19 0 -37 4 -41 9 -3 6 -27 13 -53 17
-50 7 -154 44 -206 72 -17 9 -44 21 -61 27 -43 14 -185 95 -185 105 0 5 -10
12 -22 16 -65 20 -384 315 -402 371 -11 34 21 179 50 229 57 97 177 165 235
133z"/>
<path d="M3355 4277 c-79 -26 -90 -44 -45 -71 37 -21 70 -15 50 9 -17 21 -9
26 45 33 39 4 50 1 73 -20 48 -45 163 -43 175 3 5 17 17 22 62 22 59 0 65 -3
65 -28 0 -22 -4 -25 -33 -25 -21 0 -41 -8 -52 -20 -11 -12 -31 -20 -50 -20
-20 0 -35 -6 -39 -15 -4 -10 -14 -13 -35 -9 -24 5 -29 3 -28 -12 2 -14 -7 -20
-33 -24 -29 -4 -35 -9 -35 -30 0 -19 -6 -26 -25 -29 -14 -1 -44 -16 -68 -32
-54 -36 -62 -36 -62 1 0 17 -4 30 -10 30 -10 0 -14 -13 -11 -42 1 -10 -4 -18
-13 -18 -9 0 -16 3 -16 8 0 7 -48 32 -63 32 -4 0 2 -14 14 -31 22 -31 22 -32
3 -45 -10 -7 -24 -18 -31 -24 -17 -14 -23 -13 -23 6 0 9 -13 21 -29 27 -22 8
-30 19 -34 41 -6 44 1 56 35 56 l29 0 -18 25 c-22 30 -40 32 -48 4 -6 -18 -28
-24 -26 -6 1 4 1 15 1 25 0 15 36 42 55 42 2 0 21 -16 42 -35 29 -27 47 -35
75 -35 20 0 40 5 43 11 4 6 19 7 37 4 27 -6 29 -5 26 17 -2 17 -9 23 -28 23
-20 0 -27 7 -35 33 -8 30 -25 44 -25 22 0 -5 -13 -16 -29 -25 -31 -15 -71 -9
-86 14 -12 21 -36 11 -85 -35 -54 -50 -62 -73 -30 -81 15 -4 20 -14 20 -39 0
-19 8 -41 18 -51 11 -10 22 -26 25 -36 4 -9 20 -20 37 -23 33 -7 38 -25 18
-69 -13 -29 -44 -33 -53 -6 -3 11 -12 22 -20 25 -8 3 -15 12 -15 21 0 21 -10
19 -50 -15 l-35 -29 18 -29 c9 -17 17 -37 17 -45 0 -14 20 -27 41 -27 5 0 9
11 9 25 0 16 -6 25 -16 25 -11 0 -14 8 -12 32 4 42 28 50 28 9 0 -19 9 -39 26
-56 27 -27 44 -25 44 4 0 10 9 26 20 36 17 16 20 16 26 2 6 -17 -21 -77 -36
-77 -6 0 -17 -18 -26 -40 -9 -21 -25 -42 -36 -46 -15 -4 -17 -9 -9 -17 19 -19
12 -27 -24 -27 -31 0 -35 -3 -35 -26 0 -21 4 -24 20 -19 30 10 38 -22 11 -42
-21 -14 -22 -20 -16 -79 8 -68 3 -74 -36 -54 -10 6 -19 20 -19 31 0 11 -7 22
-15 25 -19 8 -19 23 1 63 9 19 14 45 11 64 -7 46 -33 111 -46 115 -16 5 -13
38 5 53 10 8 14 22 10 38 -3 14 2 45 11 69 17 45 13 55 -24 67 -16 4 -23 2
-23 -7 0 -8 -9 -31 -20 -53 -28 -54 -27 -131 1 -161 25 -26 38 -141 21 -184
-9 -23 -10 -21 -17 25 -16 108 -42 94 -28 -15 7 -51 12 -64 27 -66 11 -1 23
-10 28 -18 5 -9 22 -23 38 -31 17 -9 30 -24 30 -34 0 -13 8 -18 28 -19 45 -1
102 -14 102 -22 0 -13 85 -21 113 -11 39 15 33 31 -12 31 -22 0 -44 6 -51 15
-7 8 -18 15 -24 15 -7 0 -26 15 -44 33 -39 40 -41 75 -7 115 15 19 21 33 15
37 -21 13 -8 33 32 48 31 13 45 14 53 6 7 -8 6 -13 -2 -16 -20 -7 -15 -25 5
-19 25 8 45 -56 25 -84 -8 -11 -20 -20 -28 -20 -20 0 -38 -38 -31 -66 6 -21
12 -24 51 -24 35 0 45 -4 50 -20 7 -21 49 -28 60 -10 3 6 14 10 24 10 10 0 30
9 45 21 37 29 56 19 56 -32 0 -28 4 -39 13 -36 8 2 12 25 12 66 0 56 3 63 30
86 17 14 37 22 48 19 10 -3 20 1 23 10 3 9 51 62 106 118 86 88 178 205 178
225 0 4 7 14 16 24 9 10 14 25 10 34 -8 21 -26 10 -26 -16 0 -10 -7 -19 -15
-19 -8 0 -22 -15 -31 -32 -21 -43 -44 -68 -60 -68 -25 0 14 87 44 99 26 12 62
71 62 104 0 9 15 31 34 49 30 29 34 40 37 96 3 46 1 61 -8 58 -7 -3 -17 4 -23
14 -6 11 -17 20 -24 20 -8 0 -16 7 -19 15 -10 25 -83 55 -137 55 -36 0 -52 4
-56 15 -9 23 -81 20 -94 -4 -8 -15 -7 -22 6 -29 14 -8 14 -10 0 -21 -22 -18
-51 -9 -51 15 0 58 -55 68 -170 31z m476 -151 c-8 -14 -11 -32 -8 -40 12 -30
26 -16 29 27 2 34 7 42 23 42 16 0 21 -8 23 -41 2 -33 -2 -48 -23 -72 -26 -31
-27 -31 -56 -16 -38 19 -46 39 -24 60 11 12 13 20 6 27 -15 15 -14 40 1 55 10
10 15 9 27 -3 12 -12 13 -18 2 -39z m-63 22 c19 -19 14 -56 -7 -63 -11 -3 -23
-15 -27 -27 -15 -48 -64 -78 -64 -39 0 10 -7 24 -15 31 -21 17 -19 39 7 61 25
22 30 23 46 7 8 -8 14 -5 21 15 12 30 21 33 39 15z m-198 -128 c0 -5 -5 -10
-11 -10 -5 0 -7 5 -4 10 3 6 8 10 11 10 2 0 4 -4 4 -10z m-76 -73 c18 -17 23
-29 19 -50 -4 -20 -1 -27 10 -27 26 0 30 -37 8 -66 -12 -15 -21 -33 -21 -42 0
-19 -63 -10 -86 12 -22 23 -34 20 -34 -9 0 -14 5 -25 11 -25 5 0 8 -4 4 -9 -3
-6 -17 -4 -33 5 -34 18 -40 17 -58 -1 -20 -20 -27 -19 -52 8 -21 22 -21 26 -9
63 12 33 19 39 45 42 33 3 41 19 20 40 -9 9 -7 12 10 12 12 0 22 4 22 10 0 10
84 56 107 59 7 0 23 -9 37 -22z m212 -14 c-11 -12 -29 -23 -39 -23 -11 0 -32
-14 -49 -32 l-29 -31 -22 22 -22 22 23 6 c12 3 29 18 37 32 12 24 19 27 68 27
l55 0 -22 -23z m4 -208 c0 -20 -72 -124 -90 -130 -8 -3 -36 -25 -63 -50 -26
-25 -58 -47 -72 -51 -13 -3 -40 -24 -60 -45 -25 -28 -45 -40 -75 -45 -25 -4
-40 -3 -40 4 0 15 54 52 76 52 20 0 64 38 64 55 0 6 24 28 53 48 29 20 84 68
123 107 71 72 84 81 84 55z m-340 -36 c0 -12 -7 -19 -19 -19 -29 0 -34 -28 -8
-41 12 -7 24 -13 26 -15 8 -7 -42 -54 -56 -54 -8 0 -16 -7 -19 -15 -4 -8 -10
-15 -15 -15 -17 0 -9 27 17 55 20 22 23 30 12 36 -7 5 -16 9 -20 9 -17 0 -7
29 13 35 11 4 24 17 29 31 11 28 40 23 40 -7z m-170 2 c0 -6 -4 -13 -10 -16
-5 -3 -10 1 -10 9 0 9 5 16 10 16 6 0 10 -4 10 -9z"/>
<path d="M3190 4220 c-11 -21 -4 -25 24 -14 9 3 16 12 16 20 0 21 -28 17 -40
-6z"/>
<path d="M3455 4189 c-4 -6 -19 -7 -36 -4 -26 6 -29 4 -29 -17 0 -31 11 -44
35 -45 11 0 27 -3 36 -7 13 -6 20 1 29 28 6 20 9 40 5 46 -8 13 -32 13 -40 -1z"/>
<path d="M2955 3994 c-19 -45 -19 -54 -1 -54 8 0 21 -9 29 -20 9 -13 20 -18
30 -14 13 5 14 10 4 32 -6 15 -18 32 -25 38 -12 8 -11 12 2 23 22 18 20 31 -4
31 -13 0 -25 -12 -35 -36z"/>
<path d="M3900 3955 c0 -22 4 -34 10 -30 6 3 10 17 10 30 0 13 -4 27 -10 30
-6 4 -10 -8 -10 -30z"/>
<path d="M3082 3711 c2 -7 7 -12 11 -12 12 1 9 15 -3 20 -7 2 -11 -2 -8 -8z"/>
<path d="M2987 3685 c18 -24 53 -34 53 -15 0 6 -7 10 -15 10 -9 0 -18 7 -21
15 -4 8 -13 15 -21 15 -11 0 -10 -5 4 -25z"/>
<path d="M4270 3694 c0 -8 5 -12 10 -9 6 3 10 10 10 16 0 5 -4 9 -10 9 -5 0
-10 -7 -10 -16z"/>
<path d="M2837 3677 c-6 -17 3 -66 14 -73 5 -3 9 15 9 40 0 44 -12 61 -23 33z"/>
<path d="M4255 3650 c-4 -12 -4 -47 0 -77 5 -44 3 -58 -10 -73 -9 -10 -23 -51
-32 -92 -8 -40 -23 -82 -32 -93 -36 -40 -37 -84 -2 -65 10 5 26 35 36 67 10
32 23 65 30 73 26 33 38 85 39 170 1 55 -3 93 -11 100 -8 9 -13 7 -18 -10z"/>
<path d="M3160 3516 c0 -10 9 -16 21 -16 24 0 21 23 -4 28 -10 2 -17 -3 -17
-12z"/>
<path d="M3117 3473 c-3 -5 -2 -15 2 -22 5 -7 11 -9 14 -4 3 5 2 15 -2 22 -5
7 -11 9 -14 4z"/>
<path d="M3537 3463 c-4 -3 0 -14 9 -24 13 -14 15 -29 9 -68 -4 -28 -11 -54
-17 -57 -5 -3 -13 -16 -18 -29 -7 -19 -16 -22 -65 -23 -32 0 -62 -5 -68 -11
-6 -6 -29 -8 -54 -4 -29 4 -43 2 -43 -6 0 -13 -1 -13 77 -17 34 -1 71 -7 82
-13 12 -7 28 -8 43 -2 13 5 57 9 98 10 41 1 93 4 115 7 22 2 64 -1 93 -7 40
-9 55 -10 64 -1 6 6 9 14 6 17 -3 4 -57 7 -119 9 -63 1 -121 6 -129 10 -28 13
-50 79 -50 149 0 49 -4 67 -13 67 -8 0 -17 -3 -20 -7z"/>
<path d="M2930 3318 c0 -27 17 -48 38 -48 21 0 10 41 -15 58 -22 14 -23 13
-23 -10z"/>
<path d="M3010 3301 c0 -6 10 -21 23 -34 16 -18 27 -22 43 -17 26 10 39 41 22
52 -18 11 -88 10 -88 -1z"/>
<path d="M3240 3235 c0 -9 6 -12 15 -9 8 4 12 10 9 15 -8 14 -24 10 -24 -6z"/>
<path d="M4136 3215 c-3 -9 -13 -15 -22 -13 -16 3 -27 -10 -38 -44 -3 -10 -13
-18 -23 -18 -10 0 -24 -10 -32 -21 -11 -18 -11 -23 1 -30 20 -13 41 -6 53 17
5 11 27 37 48 59 35 36 48 65 28 65 -5 0 -12 -7 -15 -15z"/>
<path d="M3067 3192 c-22 -24 -21 -29 2 -35 28 -7 44 7 36 32 -8 26 -17 26
-38 3z"/>
<path d="M3176 3165 c-3 -9 -18 -15 -36 -15 -19 0 -30 -5 -30 -14 0 -18 -77
-33 -93 -17 -16 16 -37 14 -37 -4 0 -8 20 -28 45 -45 42 -29 61 -30 33 -2 -7
7 -10 12 -7 13 36 6 110 5 114 -2 12 -19 35 -9 35 16 0 14 -5 25 -11 25 -7 0
-9 11 -5 30 6 32 2 40 -8 15z"/>
<path d="M3954 3065 c-4 -8 -15 -15 -25 -15 -10 0 -19 -7 -19 -15 0 -18 48
-20 85 -3 28 12 33 28 10 28 -8 0 -15 5 -15 10 0 16 -30 12 -36 -5z"/>
<path d="M3110 3052 c0 -10 -5 -23 -10 -28 -7 -7 3 -16 31 -28 22 -10 43 -24
46 -32 3 -8 12 -14 20 -14 10 0 13 6 9 16 -3 9 -6 20 -6 25 0 6 -13 15 -29 20
-18 6 -32 20 -35 35 -7 28 -26 32 -26 6z"/>
<path d="M3810 2979 c-30 -15 -64 -28 -76 -28 -37 -1 -36 -15 3 -27 33 -9 43
-8 71 9 18 10 39 17 47 14 7 -3 18 0 25 7 8 10 6 15 -7 21 -17 6 -17 7 1 21
32 23 -3 14 -64 -17z"/>
<path d="M3230 2976 c0 -11 9 -16 26 -16 31 0 28 23 -4 28 -15 2 -22 -2 -22
-12z"/>
<path d="M3286 2954 c-8 -32 10 -57 37 -50 11 3 29 0 39 -5 20 -11 111 -2 103
11 -2 4 -32 10 -65 14 -49 6 -63 12 -76 32 -21 31 -30 30 -38 -2z"/>
<path d="M3557 2913 c-63 -5 -57 -27 8 -31 60 -4 91 3 99 23 6 16 1 16 -107 8z"/>
<path d="M1987 3383 c-19 -18 19 -48 43 -33 11 7 11 11 1 24 -14 17 -33 21
-44 9z"/>
<path d="M5027 3382 c-27 -17 -35 -32 -18 -32 6 0 13 5 17 11 4 8 9 8 17 0 17
-17 37 -13 37 8 0 27 -22 32 -53 13z"/>
<path d="M3082 2443 c2 -10 12 -18 23 -18 11 0 21 8 23 18 3 13 -3 17 -23 17
-20 0 -26 -4 -23 -17z"/>
<path d="M3187 2454 c-10 -11 3 -24 24 -24 10 0 19 7 19 15 0 15 -31 21 -43 9z"/>
<path d="M3080 2356 c0 -18 30 -30 43 -17 5 5 6 14 3 20 -10 16 -46 13 -46 -3z"/>
<path d="M3200 2355 c0 -9 5 -15 11 -13 6 2 11 8 11 13 0 5 -5 11 -11 13 -6 2
-11 -4 -11 -13z"/>
<path d="M3294 2359 c-8 -14 11 -33 25 -25 6 4 11 14 11 22 0 16 -26 19 -36 3z"/>
<path d="M3390 2326 c0 -10 9 -16 21 -16 24 0 21 23 -4 28 -10 2 -17 -3 -17
-12z"/>
<path d="M3190 2270 c0 -15 5 -20 18 -18 9 2 17 10 17 18 0 8 -8 16 -17 18
-13 2 -18 -3 -18 -18z"/>
<path d="M3293 2274 c-8 -21 13 -42 28 -27 13 13 5 43 -11 43 -6 0 -13 -7 -17
-16z"/>
<path d="M3082 2263 c4 -22 43 -25 43 -3 0 8 -11 16 -23 18 -19 3 -23 0 -20
-15z"/>
<path d="M3397 2263 c-13 -12 -7 -43 8 -43 9 0 15 9 15 25 0 24 -10 32 -23 18z"/>
<path d="M3197 2204 c-13 -13 -7 -24 14 -24 11 0 19 5 17 12 -5 14 -22 21 -31
12z"/>
<path d="M3293 2194 c-7 -18 11 -39 26 -30 17 11 13 46 -4 46 -9 0 -18 -7 -22
-16z"/>
<path d="M3390 2162 c0 -26 11 -34 27 -21 20 17 16 39 -7 39 -13 0 -20 -7 -20
-18z"/>
<path d="M3190 2106 c0 -10 9 -16 21 -16 24 0 21 23 -4 28 -10 2 -17 -3 -17
-12z"/>
<path d="M3294 2109 c-8 -14 11 -33 25 -25 6 4 11 14 11 22 0 16 -26 19 -36 3z"/>
<path d="M3390 2085 c-10 -11 -10 -19 -2 -27 15 -15 44 -2 40 19 -4 23 -22 27
-38 8z"/>
<path d="M3305 2038 c-10 -26 2 -55 17 -40 8 8 8 18 1 34 -10 21 -12 21 -18 6z"/>
<path d="M3192 2027 c-14 -16 -6 -27 20 -27 13 0 18 6 16 17 -4 22 -22 27 -36
10z"/>
<path d="M3396 2023 c-10 -10 -7 -41 5 -49 12 -7 29 12 29 32 0 14 -25 26 -34
17z"/>
<path d="M3836 2463 c-3 -3 -6 -12 -6 -20 0 -15 36 -18 45 -4 7 12 -29 33 -39
24z"/>
<path d="M3730 2446 c0 -17 24 -38 33 -29 15 15 6 43 -13 43 -11 0 -20 -6 -20
-14z"/>
<path d="M3936 2451 c-3 -4 3 -16 13 -25 17 -16 19 -16 25 -1 3 9 4 21 0 26
-7 11 -31 12 -38 0z"/>
<path d="M3835 2371 c-8 -15 3 -31 21 -31 9 0 14 7 12 17 -4 20 -24 28 -33 14z"/>
<path d="M3734 2359 c-10 -17 13 -36 27 -22 12 12 4 33 -11 33 -5 0 -12 -5
-16 -11z"/>
<path d="M3935 2360 c-9 -14 -6 -17 20 -22 13 -2 20 3 20 12 0 18 -30 26 -40
10z"/>
<path d="M3637 2333 c-8 -7 11 -33 24 -33 5 0 9 9 9 20 0 19 -20 27 -33 13z"/>
<path d="M3835 2280 c-10 -30 10 -49 30 -29 14 14 14 17 -4 33 -18 17 -19 17
-26 -4z"/>
<path d="M3734 2276 c-7 -19 3 -36 22 -36 10 0 14 8 12 22 -4 26 -26 36 -34
14z"/>
<path d="M3646 2273 c-12 -13 -6 -53 9 -53 9 0 15 9 15 24 0 26 -12 40 -24 29z"/>
<path d="M3932 2263 c2 -10 10 -18 18 -18 8 0 16 8 18 18 2 12 -3 17 -18 17
-15 0 -20 -5 -18 -17z"/>
<path d="M3736 2201 c-7 -11 3 -41 14 -41 11 0 21 30 14 41 -3 5 -9 9 -14 9
-5 0 -11 -4 -14 -9z"/>
<path d="M3834 2195 c-3 -8 -3 -19 1 -25 9 -14 35 6 35 26 0 19 -29 18 -36 -1z"/>
<path d="M3635 2170 c-8 -14 3 -30 21 -30 8 0 14 9 14 20 0 21 -24 28 -35 10z"/>
<path d="M3834 2116 c-9 -24 12 -44 28 -28 10 10 8 16 -5 29 -15 15 -17 15
-23 -1z"/>
<path d="M3737 2114 c-13 -13 -7 -24 14 -24 11 0 19 5 17 12 -5 14 -22 21 -31
12z"/>
<path d="M3930 2095 c0 -9 5 -15 11 -13 6 2 11 8 11 13 0 5 -5 11 -11 13 -6 2
-11 -4 -11 -13z"/>
<path d="M3639 2084 c-10 -13 -10 -17 1 -24 14 -9 40 -3 40 10 0 4 -6 13 -14
19 -10 9 -16 7 -27 -5z"/>
<path d="M3737 2043 c-11 -10 -8 -41 4 -49 17 -10 32 12 24 35 -6 21 -16 26
-28 14z"/>
<path d="M3834 2037 c-8 -21 1 -47 16 -47 19 0 23 31 7 48 -15 14 -17 14 -23
-1z"/>
<path d="M3635 2011 c-9 -16 15 -55 27 -43 12 12 7 44 -9 49 -6 2 -14 -1 -18
-6z"/>
<path d="M2212 1950 c-45 -44 -82 -87 -82 -95 0 -33 25 -26 66 19 71 75 90 52
29 -34 -33 -46 -38 -70 -15 -70 4 0 32 16 61 35 30 19 57 35 61 35 19 0 4 -25
-39 -66 -46 -42 -47 -44 -30 -61 17 -17 22 -14 109 74 78 80 89 95 78 108 -29
35 -47 36 -93 5 -25 -16 -48 -30 -51 -30 -14 0 -4 36 19 66 27 36 32 63 13 82
-23 23 -45 11 -126 -68z"/>
<path d="M4693 2023 c-7 -2 -13 -11 -13 -18 0 -19 181 -175 203 -175 26 0 21
35 -9 59 -15 11 -56 48 -91 81 -36 33 -68 60 -72 59 -3 0 -12 -3 -18 -6z"/>
<path d="M4608 1934 c-38 -20 -40 -80 -3 -114 21 -20 31 -22 79 -16 67 7 86 1
86 -31 0 -23 -2 -24 -45 -17 -26 3 -45 2 -45 -3 0 -18 25 -41 53 -47 23 -5 34
-1 57 23 35 35 39 72 10 101 -31 31 -64 41 -97 28 -39 -15 -85 -3 -81 20 2 12
15 18 41 20 44 4 50 27 11 42 -32 12 -33 12 -66 -6z"/>
<path d="M2485 1829 c-4 -6 -41 -38 -84 -71 -85 -67 -99 -84 -82 -101 9 -9 17
-8 31 1 46 29 92 2 69 -41 -9 -15 -2 -47 10 -47 18 1 41 33 75 104 44 94 53
131 36 151 -14 17 -46 20 -55 4z m-27 -120 c-32 -20 -39 2 -10 34 17 19 17 19
20 -3 2 -13 -2 -27 -10 -31z"/>
<path d="M4460 1800 c-18 -16 -37 -30 -41 -30 -13 0 -113 -64 -122 -77 -4 -7
-23 -13 -42 -13 -40 0 -85 -39 -85 -74 0 -30 47 -72 90 -81 52 -11 70 -23 70
-49 0 -34 -10 -38 -42 -15 -29 21 -58 20 -58 -3 0 -27 43 -58 79 -58 20 0 81
54 81 71 0 30 -34 70 -76 89 -26 11 -52 20 -59 20 -24 0 -36 25 -21 46 13 18
15 18 33 2 22 -20 53 -7 53 21 0 26 29 35 50 16 9 -8 27 -36 40 -62 38 -77
100 -126 100 -79 0 8 -20 47 -45 88 -49 82 -55 112 -26 128 27 14 41 13 41 -4
0 -8 18 -53 40 -101 44 -95 65 -107 65 -35 0 35 4 45 23 53 17 8 26 6 40 -6
23 -21 36 -21 53 -1 11 14 10 19 -11 34 -14 10 -61 48 -104 84 -44 36 -82 66
-86 66 -4 0 -22 -13 -40 -30z m109 -81 c18 -17 20 -23 9 -36 -11 -13 -14 -12
-30 7 -19 23 -24 50 -10 50 5 0 18 -9 31 -21z"/>
<path d="M2584 1713 c-62 -99 -86 -133 -95 -133 -12 0 -11 -37 1 -45 17 -11
44 12 70 59 31 58 45 59 35 4 -4 -24 -8 -63 -9 -88 -1 -38 2 -45 19 -48 15 -2
26 9 45 42 13 25 30 48 37 50 7 3 13 14 13 25 0 26 18 37 26 16 4 -9 -1 -24
-10 -34 -9 -10 -16 -26 -16 -37 -1 -10 -7 -30 -15 -44 -8 -14 -14 -30 -15 -36
0 -16 75 -54 106 -54 33 0 82 49 90 90 4 17 11 33 15 36 5 3 9 27 9 55 0 48
-1 50 -47 79 -27 16 -55 30 -63 30 -9 0 -21 5 -27 11 -12 12 -53 -4 -53 -21 0
-14 -44 -79 -54 -80 -5 0 -6 35 -2 78 6 64 4 81 -8 91 -13 11 -21 4 -52 -46z
m247 -103 c20 -11 26 -45 10 -55 -5 -3 -13 -20 -16 -38 -11 -48 -43 -89 -69
-85 -15 2 -21 9 -19 28 3 52 50 160 70 160 2 0 13 -5 24 -10z"/>
<path d="M4060 1605 c-19 -6 -39 -22 -45 -34 -12 -25 -19 -26 -54 -5 -25 15
-30 15 -59 0 -17 -9 -37 -16 -45 -16 -7 0 -18 -5 -25 -12 -7 -7 -42 -12 -84
-12 l-73 -1 1 -111 c2 -111 12 -154 38 -154 17 0 27 38 19 68 -6 26 21 62 48
62 10 0 27 12 38 26 26 33 41 23 41 -28 0 -42 26 -98 46 -98 19 0 26 34 14 64
-13 36 3 68 33 64 15 -2 24 -14 32 -40 12 -43 38 -74 54 -64 17 11 13 34 -15
86 -28 52 -29 93 -2 98 12 2 19 -5 24 -25 3 -15 12 -42 20 -60 8 -17 14 -40
14 -51 0 -30 31 -35 86 -13 64 24 64 45 2 49 -38 2 -48 7 -54 24 -5 17 1 28
25 47 45 38 39 69 -8 39 -26 -16 -51 -3 -51 25 0 27 15 43 45 49 11 2 20 10
20 18 0 19 -40 22 -85 5z m-112 -113 c3 -30 1 -32 -27 -32 -26 0 -31 4 -31 23
0 54 53 62 58 9z m-168 -27 c0 -20 -30 -46 -49 -43 -23 4 -27 49 -6 65 21 14
55 1 55 -22z"/>
<path d="M2952 1598 c-20 -26 -42 -78 -42 -101 0 -12 -5 -28 -11 -34 -5 -5
-13 -36 -16 -68 -6 -52 -4 -57 13 -53 11 2 20 13 22 27 2 14 10 34 17 45 7 12
18 43 24 71 7 27 17 55 23 62 11 14 3 63 -11 63 -5 0 -13 -6 -19 -12z"/>
<path d="M3016 1564 c-3 -9 -6 -28 -6 -44 0 -16 -5 -41 -11 -57 -6 -15 -17
-49 -24 -75 -10 -40 -10 -50 2 -60 18 -15 33 0 42 43 9 46 35 60 62 32 20 -19
21 -25 9 -52 -14 -35 -8 -61 15 -61 21 0 35 42 33 100 -2 39 2 52 20 67 19 16
21 22 12 54 -8 27 -19 39 -48 52 -49 22 -98 22 -106 1z m102 -78 c-2 -16 -12
-22 -35 -24 -31 -3 -33 -1 -33 27 0 39 28 56 53 33 10 -9 17 -25 15 -36z"/>
<path d="M3205 1528 c-18 -77 -27 -131 -32 -190 -4 -58 -3 -68 10 -68 32 0 83
254 55 271 -21 13 -27 11 -33 -13z"/>
<path d="M3416 1509 c-24 -19 -27 -26 -21 -60 5 -30 2 -45 -14 -68 -31 -43
-27 -84 10 -115 35 -30 42 -31 59 -12 8 11 18 12 36 5 43 -16 49 -12 50 34 0
23 4 52 8 64 6 17 4 24 -9 29 -10 4 -20 1 -25 -6 -9 -15 -30 -5 -30 16 0 8 10
28 22 44 18 25 20 33 10 55 -6 14 -18 25 -26 25 -8 0 -21 2 -28 5 -8 3 -27 -4
-42 -16z m59 -28 c7 -12 -12 -24 -25 -16 -11 7 -4 25 10 25 5 0 11 -4 15 -9z
m-17 -145 c9 -19 8 -27 -4 -36 -17 -15 -44 3 -44 30 0 37 32 41 48 6z"/>
<path d="M5682 4820 c-37 -31 -46 -70 -26 -121 9 -24 17 -64 18 -89 1 -41 -1
-45 -25 -48 -40 -5 -69 47 -62 109 6 53 -10 68 -46 43 -33 -23 -29 -96 9 -156
23 -37 38 -49 70 -58 59 -16 114 1 130 40 14 35 7 97 -16 142 -21 40 -15 82
12 86 31 4 58 -32 56 -77 -2 -42 16 -65 42 -55 55 21 12 153 -62 188 -43 21
-72 20 -100 -4z"/>
<path d="M1206 4777 c-16 -28 -16 -40 -7 -91 21 -115 10 -131 -53 -75 -29 25
-38 28 -56 19 -11 -6 -20 -21 -20 -33 0 -22 9 -31 123 -115 17 -13 51 -41 76
-62 52 -47 67 -49 83 -15 10 23 8 28 -25 58 -38 33 -58 89 -38 101 6 4 44 2
85 -5 66 -11 77 -11 100 4 30 20 34 53 9 61 -10 2 -57 7 -105 11 -50 4 -91 12
-97 19 -6 7 -14 35 -17 62 -12 106 -26 121 -58 61z"/>
<path d="M5910 4483 c-30 -8 -78 -21 -106 -29 -28 -8 -64 -14 -81 -14 -71 0
-67 -64 3 -66 22 0 44 -2 51 -2 6 -1 25 -25 41 -54 l30 -51 -19 -31 c-25 -40
-24 -63 2 -76 26 -14 47 3 86 69 14 25 29 48 32 51 12 10 68 86 90 122 22 37
22 38 5 68 -21 35 -44 37 -134 13z m37 -79 c2 -5 -10 -25 -27 -44 l-30 -35
-20 25 c-27 34 -25 49 8 56 15 3 32 7 37 9 15 5 28 0 32 -11z"/>
<path d="M967 4452 c-29 -32 -20 -63 39 -127 70 -77 81 -95 56 -95 -10 0 -22
3 -25 7 -12 11 -146 43 -160 37 -7 -2 -21 -18 -31 -35 -16 -26 -16 -35 -5 -55
7 -13 19 -24 28 -24 13 0 35 -13 121 -70 63 -41 121 -64 138 -53 35 21 24 40
-50 83 -88 52 -81 46 -73 60 5 8 14 7 31 -4 13 -9 33 -16 45 -16 12 0 39 -5
60 -12 34 -10 42 -9 59 7 11 10 20 22 20 28 0 5 -32 42 -72 83 -79 82 -73 94
21 39 70 -41 104 -48 109 -22 4 18 -33 67 -49 67 -4 0 -53 27 -109 60 -56 33
-110 60 -119 60 -10 0 -25 -8 -34 -18z"/>
<path d="M6115 4220 c-3 -5 -32 -22 -63 -36 -168 -75 -182 -85 -182 -116 0
-31 29 -33 86 -5 52 26 54 26 64 7 5 -10 10 -26 10 -35 0 -18 -48 -112 -61
-121 -25 -15 -3 -84 27 -84 12 0 45 51 65 103 13 31 24 33 68 11 39 -19 74
-12 108 22 22 22 25 32 20 72 -3 26 -22 80 -42 120 -32 65 -39 72 -65 72 -16
0 -32 -4 -35 -10z m42 -88 c16 -10 33 -57 33 -91 0 -29 -26 -46 -54 -35 -13 5
-56 83 -56 102 0 23 52 40 77 24z"/>
<path d="M774 4030 c-29 -11 -64 -87 -64 -136 0 -53 21 -81 69 -89 51 -9 78 7
131 73 30 39 47 52 62 50 27 -4 37 -34 26 -75 -6 -24 -16 -34 -36 -38 -45 -10
-57 -21 -57 -51 0 -24 5 -30 28 -32 36 -4 69 18 107 70 40 55 41 115 4 164
-23 30 -32 34 -73 34 -44 0 -48 -3 -107 -67 -44 -49 -65 -65 -77 -60 -37 14
-9 80 47 112 10 6 18 19 19 30 2 16 -5 20 -28 22 -16 1 -40 -2 -51 -7z"/>
<path d="M6265 3865 c-22 -8 -47 -15 -55 -15 -8 0 -33 -9 -55 -20 -22 -11 -48
-19 -58 -20 -10 0 -36 -9 -57 -20 -68 -35 -47 -92 27 -74 15 4 33 10 39 15 12
9 165 63 207 73 25 6 28 11 25 39 -4 38 -18 42 -73 22z"/>
<path d="M2853 932 c-79 -26 -99 -108 -39 -168 19 -19 43 -34 54 -34 33 0 110
-37 121 -58 14 -26 -13 -51 -62 -59 -33 -5 -40 -2 -69 31 -22 25 -40 36 -59
36 -38 0 -44 -16 -23 -57 28 -51 73 -75 143 -75 105 0 172 65 150 145 -13 47
-36 65 -121 92 -75 24 -96 40 -85 69 14 35 71 32 108 -5 13 -13 30 -19 47 -17
23 2 27 8 27 32 0 23 -7 34 -32 49 -35 20 -124 31 -160 19z"/>
<path d="M4720 930 c-25 -6 -25 -7 -28 -130 -4 -177 -2 -234 7 -243 5 -5 21
-7 37 -5 l29 3 3 100 c1 55 7 104 12 109 5 5 20 -12 35 -40 94 -175 89 -169
134 -172 l41 -3 0 189 c0 163 -2 191 -16 196 -8 3 -24 1 -35 -4 -17 -10 -19
-22 -19 -110 0 -55 -4 -100 -8 -100 -14 0 -35 29 -88 118 -53 91 -66 102 -104
92z"/>
<path d="M2077 923 c-4 -3 -7 -83 -7 -178 0 -180 3 -195 46 -195 33 0 45 22
43 80 -3 62 6 70 77 70 37 0 59 6 79 22 62 48 68 137 13 183 -27 23 -37 25
-137 25 -59 0 -111 -3 -114 -7z m191 -73 c27 -25 27 -32 5 -58 -22 -24 -96
-38 -111 -19 -13 16 -13 68 0 85 17 20 81 15 106 -8z"/>
<path d="M2496 915 c-9 -9 -16 -21 -16 -27 0 -14 -63 -176 -96 -246 -13 -29
-24 -59 -24 -68 0 -35 74 -28 86 9 14 47 33 57 106 57 57 0 70 -3 74 -17 15
-50 30 -68 62 -71 46 -5 48 15 13 90 -17 36 -31 70 -31 75 0 6 -12 37 -26 69
-15 33 -32 77 -38 99 -11 37 -14 40 -53 43 -27 2 -46 -2 -57 -13z m68 -113 c3
-5 8 -27 12 -49 5 -36 4 -42 -15 -48 -11 -3 -30 -1 -41 5 -21 11 -21 18 1 78
8 22 33 30 43 14z"/>
<path d="M3147 923 c-4 -3 -7 -66 -7 -140 0 -202 22 -236 151 -235 74 0 109
14 130 54 13 25 33 271 24 306 -7 28 -59 31 -73 5 -5 -10 -10 -74 -11 -143 -2
-84 -6 -129 -15 -138 -21 -22 -84 -18 -109 7 -20 20 -22 32 -23 145 -1 68 -5
129 -8 135 -8 12 -49 15 -59 4z"/>
<path d="M3524 917 c-2 -7 -3 -91 -2 -187 l3 -175 31 -3 c42 -4 52 13 56 88 3
57 6 65 24 68 22 3 64 -38 117 -117 25 -36 33 -41 68 -41 24 0 39 5 39 13 0
16 -31 66 -64 100 -34 36 -33 61 3 86 55 40 50 133 -10 163 -43 23 -256 26
-265 5z m214 -63 c29 -20 28 -38 -4 -63 -48 -38 -134 -21 -134 25 0 9 5 24 10
35 14 24 95 27 128 3z"/>
<path d="M3919 878 c-5 -293 11 -328 148 -328 67 0 74 2 106 33 42 40 49 76
45 232 l-3 110 -35 0 -35 0 -3 -137 c-3 -135 -3 -137 -29 -158 -20 -15 -35
-19 -57 -14 -56 11 -61 22 -66 172 l-5 137 -32 3 -33 3 -1 -53z"/>
<path d="M4408 913 c-8 -10 -23 -43 -34 -73 -10 -30 -24 -64 -31 -75 -7 -11
-13 -26 -13 -35 0 -8 -6 -26 -13 -40 -26 -50 -48 -120 -42 -130 15 -25 54 -10
82 33 27 40 32 42 83 45 76 4 98 -3 106 -36 10 -41 23 -52 60 -52 38 0 42 12
19 56 -8 16 -15 37 -15 46 0 9 -4 19 -9 22 -4 3 -25 52 -46 108 -50 135 -59
148 -100 148 -18 0 -38 -8 -47 -17z m62 -125 c36 -60 16 -101 -41 -83 -17 6
-19 12 -13 38 9 42 22 77 29 77 3 0 14 -15 25 -32z"/>
</g>
</svg>
